Coordinates
version=1
nRows=30
nColumns=30
inDegrees=yes

Units are S.I. units (second, meters, Newtons, ...)
Angles are in degrees.

endheader
time	floatyaw	floatroll	floatpitch	floatx	floaty	floatz	pro_sup_l	deviation_l	flexion_l	cmc_flexion_l	cmc_abduction_l	mp_flexion_l	ip_flexion_l	2mcp_flexion_l	2mcp_abduction_l	2pm_flexion_l	2md_flexion_l	3mcp_flexion_l	3mcp_abduction_l	3pm_flexion_l	3md_flexion_l	4mcp_flexion_l	4mcp_abduction_l	4pm_flexion_l	4md_flexion_l	5mcp_flexion_l	5mcp_abduction_l	5pm_flexion_l	5md_flexion_l
-1.495000	-2.462414	-4.584149	94.174208	-0.008689	-0.267287	-0.004697	90.965545	0.409347	-1.936156	26.134355	2.157651	-18.484947	-31.746787	19.012302	6.206497	32.317278	20.487373	8.944100	4.494788	34.803645	21.540045	-1.985198	-3.907204	51.676095	32.959450	-21.660363	-8.567879	62.534062	49.968241
-1.485000	-2.462414	-4.584149	94.174208	-0.008697	-0.267306	-0.004684	90.963312	0.403664	-1.941059	26.153493	2.152605	-18.502530	-31.756497	19.001731	6.208064	32.328803	20.500005	8.949357	4.494417	34.775603	21.544689	-1.979080	-3.904324	51.655666	32.965650	-21.681278	-8.577197	62.518714	49.961075
-1.475000	-2.462414	-4.584149	94.174208	-0.008710	-0.267330	-0.004655	90.958445	0.394068	-1.943713	26.173551	2.139417	-18.516259	-31.780817	18.981523	6.208226	32.345056	20.512647	8.945879	4.492465	34.754368	21.548657	-1.987198	-3.900049	51.640793	32.970626	-21.718692	-8.586223	62.488649	49.955568
-1.465000	-2.462414	-4.584149	94.174208	-0.008724	-0.267355	-0.004615	90.949362	0.381480	-1.943342	26.188647	2.124369	-18.524026	-31.811979	18.958267	6.207550	32.360881	20.522367	8.935931	4.489461	34.742131	21.552331	-2.009105	-3.895372	51.633642	32.978197	-21.763448	-8.592523	62.444118	49.964316
-1.455000	-2.462414	-4.584149	94.174208	-0.008734	-0.267375	-0.004573	90.935813	0.368056	-1.940315	26.196364	2.115567	-18.526581	-31.840709	18.940900	6.207420	32.370129	20.527842	8.925258	4.485748	34.737769	21.556921	-2.037341	-3.890878	51.632865	32.992533	-21.802221	-8.595548	62.391327	49.996335
-1.445000	-2.462414	-4.584149	94.174208	-0.008739	-0.267385	-0.004539	90.919611	0.356299	-1.936243	26.199071	2.118451	-18.527289	-31.860551	18.937307	6.209292	32.367772	20.528536	8.920541	4.481345	34.737057	21.562448	-2.060348	-3.886639	51.633426	33.015130	-21.823170	-8.596221	62.338551	50.052707
-1.435000	-2.462414	-4.584149	94.174208	-0.008736	-0.267384	-0.004519	90.903969	0.347999	-1.933033	26.202222	2.132813	-18.530377	-31.870387	18.950807	6.213785	32.351922	20.524219	8.925815	4.476186	34.734840	21.567040	-2.068286	-3.882533	51.629131	33.043044	-21.820915	-8.595758	62.291868	50.125670
-1.425000	-2.462414	-4.584149	94.174208	-0.008729	-0.267375	-0.004513	90.891791	0.343622	-1.931501	26.210651	2.152987	-18.538377	-31.873806	18.978348	6.220177	32.324755	20.515418	8.939872	4.470492	34.728016	21.568298	-2.058483	-3.878647	51.616628	33.069627	-21.798486	-8.594752	62.253539	50.201213
-1.415000	-2.462414	-4.584149	94.174208	-0.008721	-0.267361	-0.004516	90.884127	0.342463	-1.930574	26.225269	2.170902	-18.550292	-31.875985	19.011570	6.226659	32.291817	20.504191	8.956301	4.464929	34.717479	21.565640	-2.037236	-3.875358	51.598295	33.087469	-21.765540	-8.593222	62.223743	50.263774
-1.405000	-2.462414	-4.584149	94.174208	-0.008715	-0.267346	-0.004525	90.879945	0.343388	-1.927763	26.242299	2.180021	-18.561808	-31.880170	19.040378	6.231199	32.259955	20.494085	8.966364	4.460309	34.707762	21.561528	-2.016675	-3.873000	51.581782	33.091895	-21.733867	-8.591373	62.203343	50.301188
-1.395000	-2.462414	-4.584149	94.174208	-0.008712	-0.267329	-0.004537	90.877381	0.345678	-1.920714	26.255506	2.178017	-18.567700	-31.885878	19.057301	6.232499	32.234668	20.488729	8.963283	4.457021	34.704515	21.560372	-2.008181	-3.871427	51.575948	33.083108	-21.712126	-8.590205	62.194601	50.308315
-1.385000	-2.462414	-4.584149	94.174208	-0.008710	-0.267310	-0.004551	90.875572	0.349517	-1.908884	26.260011	2.167067	-18.564951	-31.889793	19.060500	6.230561	32.218131	20.489865	8.945681	4.454704	34.711409	21.565807	-2.015981	-3.869949	51.585475	33.065945	-21.701977	-8.591232	62.199009	50.288303
-1.375000	-2.462414	-4.584149	94.174208	-0.008707	-0.267287	-0.004570	90.875714	0.355828	-1.894251	26.255226	2.152092	-18.554412	-31.888492	19.053869	6.226701	32.209031	20.496271	8.918159	4.452546	34.728548	21.578338	-2.034850	-3.867836	51.607816	33.047532	-21.697630	-8.595389	62.214630	50.251042
-1.365000	-2.462414	-4.584149	94.174208	-0.008701	-0.267261	-0.004595	90.880473	0.365559	-1.880514	26.244949	2.138142	-18.539776	-31.880898	19.044174	6.223055	32.204542	20.504418	8.888525	4.450022	34.753494	21.594981	-2.053695	-3.865065	51.634976	33.034056	-21.689562	-8.602012	62.236011	50.209211
-1.355000	-2.462414	-4.584149	94.174208	-0.008691	-0.267235	-0.004626	90.892017	0.378800	-1.871252	26.234580	2.128501	-18.524810	-31.868753	19.037036	6.221762	32.203192	20.510440	8.863462	4.447418	34.783941	21.610954	-2.062772	-3.862697	51.659099	33.028271	-21.670652	-8.608898	62.257243	50.173424
-1.345000	-2.462414	-4.584149	94.174208	-0.008679	-0.267211	-0.004660	90.910013	0.394281	-1.868284	26.227665	2.124489	-18.511237	-31.855327	19.034395	6.224087	32.206442	20.512181	8.845614	4.445665	34.819547	21.622175	-2.059456	-3.862468	51.677648	33.028885	-21.640817	-8.613616	62.275643	50.148459
-1.335000	-2.462414	-4.584149	94.174208	-0.008665	-0.267195	-0.004692	90.931098	0.409598	-1.871162	26.224362	2.126476	-18.498944	-31.843830	19.034801	6.229881	32.217609	20.510219	8.833898	4.445569	34.861104	21.627060	-2.048635	-3.865753	51.694211	33.031959	-21.607118	-8.615064	62.293009	50.132139
-1.325000	-2.462414	-4.584149	94.174208	-0.008650	-0.267186	-0.004717	90.950291	0.422081	-1.877853	26.222667	2.134627	-18.487875	-31.836576	19.035621	6.237695	32.238901	20.507497	8.826103	4.447052	34.907715	21.626858	-2.038236	-3.872620	51.714593	33.033415	-21.579596	-8.613917	62.313570	50.117146
-1.315000	-2.462414	-4.584149	94.174208	-0.008637	-0.267185	-0.004733	90.963348	0.429800	-1.885890	26.220805	2.148634	-18.479538	-31.834747	19.035097	6.245531	32.268858	20.507844	8.821252	4.449012	34.954613	21.624670	-2.033884	-3.881721	51.741635	33.031256	-21.565986	-8.611539	62.340315	50.094947
-1.305000	-2.462414	-4.584149	94.174208	-0.008625	-0.267188	-0.004739	90.968425	0.432142	-1.893263	26.218647	2.167055	-18.476617	-31.838245	19.032959	6.251844	32.302210	20.514057	8.820056	4.449976	34.993781	21.623736	-2.036453	-3.891163	51.772667	33.026367	-21.568479	-8.608343	62.372151	50.060298
-1.295000	-2.462414	-4.584149	94.174208	-0.008617	-0.267194	-0.004738	90.966198	0.429748	-1.898844	26.217331	2.187366	-18.481102	-31.845633	19.029865	6.256229	32.332268	20.526334	8.823834	4.449096	35.017148	21.625671	-2.043097	-3.899685	51.800826	33.021559	-21.583622	-8.603181	62.403300	50.014603
-1.285000	-2.462414	-4.584149	94.174208	-0.008614	-0.267198	-0.004732	90.958824	0.423960	-1.902515	26.218066	2.206918	-18.492667	-31.854714	19.026770	6.259393	32.354095	20.541785	8.833453	4.446766	35.020076	21.629382	-2.049659	-3.907171	51.818533	33.019564	-21.604468	-8.594442	62.424903	49.966597
-1.275000	-2.462414	-4.584149	94.174208	-0.008617	-0.267203	-0.004725	90.948618	0.416135	-1.905120	26.221373	2.224125	-18.508717	-31.863782	19.024845	6.262475	32.366208	20.555469	8.849153	4.444456	35.002822	21.631447	-2.052414	-3.914090	51.820599	33.021348	-21.623625	-8.581904	62.428005	49.929776
-1.265000	-2.462414	-4.584149	94.174208	-0.008624	-0.267209	-0.004716	90.937057	0.407120	-1.908119	26.226949	2.239159	-18.525913	-31.872441	19.025616	6.266137	32.369872	20.562752	8.870798	4.443887	34.969423	21.628117	-2.048855	-3.920455	51.805676	33.025834	-21.636165	-8.567607	62.406781	49.917352
-1.255000	-2.462414	-4.584149	94.174208	-0.008636	-0.267219	-0.004705	90.924332	0.397085	-1.912812	26.233354	2.253838	-18.541624	-31.880675	19.030654	6.270064	32.366907	20.561852	8.897612	4.446147	34.925376	21.618006	-2.038301	-3.925363	51.776173	33.031032	-21.641450	-8.554852	62.360929	49.936887
-1.245000	-2.462414	-4.584149	94.174208	-0.008650	-0.267233	-0.004692	90.909624	0.385841	-1.919432	26.237251	2.270716	-18.554040	-31.886441	19.040669	6.273197	32.357991	20.555028	8.927265	4.451278	34.876030	21.603718	-2.022545	-3.927599	51.737298	33.035606	-21.642876	-8.546088	62.296364	49.987092
-1.235000	-2.462414	-4.584149	94.174208	-0.008665	-0.267252	-0.004677	90.892177	0.373555	-1.926676	26.233291	2.291469	-18.561306	-31.884127	19.054477	6.274516	32.342971	20.547464	8.955149	4.458459	34.826658	21.591078	-2.005873	-3.926798	51.695896	33.039650	-21.645430	-8.541387	62.224065	50.058293
-1.225000	-2.462414	-4.584149	94.174208	-0.008678	-0.267269	-0.004663	90.872876	0.361482	-1.932154	26.216072	2.314938	-18.561168	-31.866383	19.068525	6.273758	32.323040	20.544346	8.974923	4.466481	34.783519	21.586071	-1.993775	-3.924089	51.659390	33.044056	-21.652382	-8.538784	62.157577	50.136157
-1.215000	-2.462414	-4.584149	94.174208	-0.008688	-0.267281	-0.004653	90.855362	0.352145	-1.933659	26.183976	2.335952	-18.552038	-31.829300	19.077586	6.271546	32.302755	20.547850	8.980639	4.474186	34.754084	21.591193	-1.990532	-3.921608	51.634641	33.048940	-21.663188	-8.536184	62.109823	50.206725
-1.205000	-2.462414	-4.584149	94.174208	-0.008692	-0.267283	-0.004652	90.845488	0.348563	-1.930592	26.142311	2.346422	-18.534751	-31.777415	19.076860	6.268905	32.289438	20.555982	8.969652	4.480732	34.745088	21.603620	-1.996898	-3.921199	51.626313	33.052449	-21.673915	-8.533366	62.089883	50.260461
